# xmcd
#
# Track frame offsets:
#	150
#	14762
#	29697
#	39680
#	54182
#	71697
#	79287
#	90512
#	105735
#	122605
#	128820
#	141457
#
# Disc length: 2087 seconds
#
# Revision: 0
# Processed by: cddbd v1.4PL0 Copyright (c) Steve Scherf et al.
# Submitted via: dBpowerAMP V4.0
#
DISCID=aa08250c
DTITLE=Tony Bennett - As Time Goes By
DYEAR=1900
DGENRE=Easy Listening
TTITLE0=As Time Goes By
TTITLE1=Manhattan
TTITLE2=Blue Moon
TTITLE3=I Could Write A Book
TTITLE4=Make Someone Happy
TTITLE5=This Can't Be Love
TTITLE6=The Lady Is A Tramp
TTITLE7=Have You Met Miss Jones?
TTITLE8=My Romance
TTITLE9=I've Got You Under My Skin
TTITLE10=Dream Dancing
TTITLE11=Isn't It Romantic
EXTD=
EXTT0=
EXTT1=
EXTT2=
EXTT3=
EXTT4=
EXTT5=
EXTT6=
EXTT7=
EXTT8=
EXTT9=
EXTT10=
EXTT11=
PLAYORDER=
